# xmcd
#
# Track frame offsets: 
#        150
#        13231
#        26358
#        38866
#        51861
#        64462
#        75933
#        87733
#        98502
#        110309
#        121816
#        135267
#        147622
#        158954
#        169696
#        182000
#        193901
#        204669
#        216882
#        227799
#
# Disc length: 3210 seconds
#
# Revision: 1
# Processed by: cddbd v1.5.2PL0 Copyright (c) Steve Scherf et al.
# Submitted via: ExactAudioCopyFreeDBPlugin 1.0
#
DISCID=170c8814
DTITLE=Hank Williams - The Absolutely Essential Collection CD2
DYEAR=2009
DGENRE=Country
TTITLE0=Wedding Bells
TTITLE1=I've Just Told Mama Goodbye
TTITLE2=I'm So Lonesome I Could Cry
TTITLE3=A House Without Love
TTITLE4=I Just Don't Like This Kind of Livin'
TTITLE5=My Bucket's Got a Hole in It
TTITLE6=Long Gone Lonesome Blues
TTITLE7=Why Don't You Love Me (Like You Used to Do)?
TTITLE8=Why Should We Try Anymore
TTITLE9=My Son Calls Another Man Daddy
TTITLE10=Too Many Parties Too Many Pals
TTITLE11=They'll Never Take Her Love from Me
TTITLE12=Nobody's Lonesome for Me
TTITLE13=Moanin' the Blues
TTITLE14=Cold, Cold Heart
TTITLE15=Dear John
TTITLE16=I Can't Help It (If I'm Still in Love With You)
TTITLE17=Howlin' at the Moon
TTITLE18=My Heart Would Know
TTITLE19=Hey, Good Lookin'
EXTD=
EXTT0=
EXTT1=
EXTT2=
EXTT3=
EXTT4=
EXTT5=
EXTT6=
EXTT7=
EXTT8=
EXTT9=
EXTT10=
EXTT11=
EXTT12=
EXTT13=
EXTT14=
EXTT15=
EXTT16=
EXTT17=
EXTT18=
EXTT19=
PLAYORDER=
